<?xml version="1.0" encoding="UTF-8"?>
<svg id="Capa_2" data-name="Capa 2" xmlns="http://www.w3.org/2000/svg" viewBox="0 0 1791.96 473.68">
  <defs>
    <style>
      .cls-1 {
        letter-spacing: -.05em;
      }

      .cls-2 {
        letter-spacing: -.02em;
      }

      .cls-3 {
        letter-spacing: 0em;
      }

      .cls-4 {
        fill: #fff;
      }

      .cls-4, .cls-5, .cls-6 {
        stroke-width: 0px;
      }

      .cls-5, .cls-7 {
        fill: #bbbfca;
      }

      .cls-7 {
        font-family: Montserrat-Bold, Montserrat;
        font-size: 417.92px;
        font-weight: 700;
      }

      .cls-6 {
        fill: #e8e8e8;
      }
    </style>
  </defs>
  <g id="Capa_2-2" data-name="Capa 2">
    <g>
      <g>
        <path class="cls-4" d="m317.48,231.98c-30.19-7.52-60.37-15.03-90.56-22.55-2.11,8.17-6.71,21.48-17.36,34.43-5.5,6.7-25.9,31.57-52.92,30.16-32.65-1.7-53.67-40.62-59.61-65.66-1.54-6.48-2.08-12.06-2.27-16.04-31.48,1.33-62.95,2.67-94.43,4,.57,9.22,2.03,21.32,5.7,35.1,0,0,7.02,26.36,21.77,49.78,15.67,24.88,61.89,76.83,124.86,81.02,68.1,4.53,138.94-47.91,164.82-130.25Z"/>
        <path class="cls-6" d="m242.72,231.91c27.03,15.13,54.06,30.26,81.09,45.38-47.43,61.61-108.81,94.64-154.04,91.62-28.95-1.93-56.49-13.69-56.49-13.69-5.47-2.34-24.32-10.72-44.91-27.82-33.99-28.23-49.01-60.49-52.77-69.01C5.26,234.97,1.48,213.06.32,196.09c31.48-1.31,62.95-2.62,94.43-3.93,2.07,44.62,35.51,79.19,73.84,81.87,29.15,2.03,58.06-14.59,74.12-42.11Z"/>
        <path class="cls-5" d="m316.13,55.28c-21.54,22.17-43.08,44.34-64.63,66.51-3.97-3.92-35.12-33.68-78.21-27.74-41.53,5.72-75.57,42.02-78.53,85.79-2.85,42.08,23.62,82.07,63.6,94.75,31.94,10.13,67.66,1.29,93.05-22.83,21.7,21.63,43.39,43.25,65.09,64.88-9.01,8.3-72.23,64.71-157.71,51.86C73.99,355.74.22,279.8,0,185.82-.24,81.78,89.77,4.02,179.26.15c72.58-3.14,124.31,43.22,136.86,55.13Z"/>
      </g>
      <text class="cls-7" transform="translate(323.81 362.51)"><tspan x="0" y="0">e</tspan><tspan class="cls-2" x="263.71" y="0">r</tspan><tspan class="cls-1" x="435.06" y="0">T</tspan><tspan x="670.35" y="0">e</tspan><tspan class="cls-3" x="934.06" y="0">c</tspan><tspan x="1179.37" y="0">h</tspan></text>
    </g>
  </g>
</svg>