<?xml version="1.0" encoding="UTF-8"?>
<svg id="Capa_2" data-name="Capa 2" xmlns="http://www.w3.org/2000/svg" viewBox="0 0 2000 2000">
  <defs>
    <style>
      .cls-1 {
        fill: #2d8aca;
        stroke-width: 0px;
      }
    </style>
  </defs>
  <path class="cls-1" d="m1802.88,875.9l-146.19-146.19v-208.4c0-97.88-79.35-177.23-177.23-177.23h-208.41l-147.37-147.37c-69.21-69.22-181.43-69.22-250.64,0l-147.37,147.37h-206.74c-97.88,0-177.23,79.35-177.23,177.23v206.73l-146.18,146.18c-69.21,69.22-69.21,181.43,0,250.65l146.18,146.18v208.41c0,97.88,79.35,177.23,177.23,177.23h208.42l147.37,147.37c69.21,69.21,181.43,69.21,250.64,0l147.37-147.37h206.73c97.88,0,177.23-79.35,177.23-177.23v-206.73l146.19-146.19c69.21-69.21,69.21-181.42,0-250.64Zm-443.29-44.83l-421.71,424.08c-4,2.98-21.1,15.04-45.1,12.66-20.68-2.04-33.91-13.56-37.98-17.4-73.32-74.11-146.64-148.22-219.95-222.33-13.51-25.7-7.9-57.44,13.45-76.75,21.8-19.72,54.82-21.77,79.12-4.75,57.23,55.65,114.46,111.3,171.69,166.95l367.12-366.33c28.64-24.99,70.96-21.43,92.57,3.95,18.09,21.25,19.12,54.78.79,79.92Z"/>
</svg>