<?xml version="1.0" encoding="UTF-8"?>
<svg id="Capa_2" data-name="Capa 2" xmlns="http://www.w3.org/2000/svg" viewBox="0 0 1535.71 879.2">
  <defs>
    <style>
      .cls-1 {
        font-size: 100px;
      }

      .cls-1, .cls-2 {
        font-family: MyriadPro-Regular, 'Myriad Pro';
      }

      .cls-3 {
        letter-spacing: 3em;
      }

      .cls-4 {
        letter-spacing: 2.96em;
      }

      .cls-2 {
        font-size: 804.39px;
      }

      .cls-5, .cls-6 {
        stroke-width: 0px;
      }

      .cls-6 {
        opacity: .69;
      }
    </style>
  </defs>
  <g id="Capa_2-2" data-name="Capa 2">
    <text class="cls-2" transform="translate(0 673.28)"><tspan x="0" y="0">D</tspan></text>
    <text class="cls-2" transform="translate(947.63 678.11)"><tspan x="0" y="0">S</tspan></text>
    <path class="cls-5" d="m482.81,681.14c66.97-194.19,133.94-388.38,200.91-582.57,14.66,20.29,31.94,49.07,44.41,86.19,6.77,20.14,10.81,38.81,13.22,55.06-4.48,7.7-9.46,15.7-14.98,23.91-6.95,10.34-13.94,19.77-20.75,28.32,12.23-9.82,24.47-19.63,36.7-29.45,1.04,12.58,1.21,28.58-1.47,46.81-2.13,14.53-5.57,27.06-9.09,37.25-7.81,7.96-16.74,16.28-26.87,24.6-16.78,13.77-33.1,24.46-47.69,32.75,9.53-2.68,19.38-5.66,29.49-8.99,11.16-3.67,21.82-7.47,31.95-11.33-6.66,14.93-14.64,30.86-24.23,47.4-16.81,28.98-34.72,53.16-51.38,72.83-7.45,2.54-15.29,5-23.53,7.34-10.47,2.97-20.54,5.43-30.1,7.47,5.04.6,10.44,1.06,16.17,1.3,8.51.35,16.39.16,23.53-.35-1.62,2.1-3.87,4.97-6.61,8.33-7.2,8.83-13.57,15.83-19.96,22.62-15.59,16.54-23.39,24.81-27.85,27.53-6.38,3.9-17.06,8.79-33.21,9.51-17.31,33.65-30.13,58.56-35.49,70.77-1.41,3.21-4.85,11.34-13.1,17.45-3.84,2.84-7.55,4.38-10.05,5.22Z"/>
    <path class="cls-6" d="m769.21,644.64c-30.21-4.46-78.51-9.84-138.05-8.27-72.88,1.92-180.64,14.71-181.59,35.17-.19,4.05,3.73,10.45,26.51,19.15-55.48-12.71-67.08-21.99-66.86-28.25.76-21.19,138.54-41,267.02-30.69,38.9,3.12,70.93,8.52,92.98,12.89Z"/>
    <polygon class="cls-5" points="857.7 680.14 932.51 680.14 790.38 263.67 754.38 363.56 785.43 454.75 699.39 454.95 662.01 509.87 799.41 509.34 857.7 680.14"/>
    <text class="cls-1" transform="translate(104.71 802.95)"><tspan class="cls-3" x="0" y="0">B</tspan><tspan class="cls-4" x="354.2" y="0">L</tspan><tspan class="cls-3" x="697.5" y="0">OG</tspan></text>
  </g>
</svg>