<?xml version="1.0" encoding="UTF-8"?>
<svg id="Capa_3" data-name="Capa 3" xmlns="http://www.w3.org/2000/svg" viewBox="0 0 2000 2000">
  <defs>
    <style>
      .cls-1 {
        fill: #e94639;
        stroke-width: 0px;
      }
    </style>
  </defs>
  <path class="cls-1" d="m1803.87,876.9l-146.18-146.18v-208.41c0-97.88-79.35-177.23-177.23-177.23h-208.41l-147.37-147.37c-69.21-69.22-181.43-69.22-250.64,0l-147.37,147.37h-206.74c-97.88,0-177.23,79.35-177.23,177.23v206.73l-146.18,146.18c-69.21,69.22-69.21,181.43,0,250.65l146.18,146.18v208.41c0,97.88,79.35,177.23,177.23,177.23h208.42l147.37,147.37c69.21,69.21,181.42,69.21,250.64,0l147.37-147.37h206.73c97.88,0,177.23-79.35,177.23-177.23v-206.74l146.18-146.18c69.22-69.21,69.22-181.43,0-250.64Zm-469.99,460.54c-28.06,27.54-74.74,28.13-104.44,0l-229.24-225.7-229.24,225.7c-29.7,28.13-76.39,27.54-104.44,0-26.47-25.98-29.5-69.23-5.94-99.69,76.75-79.12,153.5-158.25,230.25-237.37l-230.25-234.98c-22.7-33.4-16.45-78.28,12.86-102.97,26.74-22.51,67.07-23.52,96.33-1.47l230.43,231.42,230.43-231.42c29.26-22.05,69.59-21.04,96.32,1.47,29.31,24.69,35.57,69.57,12.86,102.97l-230.24,234.98c76.75,79.12,153.5,158.25,230.24,237.37,23.57,30.46,20.54,73.71-5.93,99.69Z"/>
</svg>