<?xml version="1.0" encoding="UTF-8"?>
<svg id="Capa_2" data-name="Capa 2" xmlns="http://www.w3.org/2000/svg" viewBox="0 0 554.3 496.21">
  <defs>
    <style>
      .cls-1 {
        fill: #fff;
        stroke-width: 0px;
      }
    </style>
  </defs>
  <g id="Capa_4" data-name="Capa 4">
    <g>
      <path class="cls-1" d="m372.72,189.99l-68.88,105.3c7.04.18,14.09.36,21.13.53,5.08.52,16.01,2.42,24.38,10.98,10.07,10.31,10.08,23.79,10.09,39.11,0,11.95.01,28.25-10.34,37.74-6.27,5.75-14.81,8.68-14.81,8.68-4.63,1.59-8.59,2.04-9.83,2.17-3.51.35-5.27.09-10.91,0-2.59-.04-6.38-.05-11.04.12-21.29.11-42.58.23-63.87.34l-64.56,98.69c57.21.08,114.42.16,171.63.24,18.9.45,34.34-1.67,45.13-3.78,13.76-2.69,25.55-4.99,39.32-12.51,6.47-3.53,19.6-11.62,31.15-26.04,18.94-23.66,22.03-49.9,24.89-74.3,1.6-13.65,1.48-23.5,1.28-39.96-.29-23.65-.6-40.1-6-60.83-3.41-13.09-7.37-27.72-18.89-43.09-8.57-11.42-17.57-18.27-21.11-20.81-12.13-8.72-23.32-12.44-32.26-15.32-10.21-3.3-19.08-4.9-25.53-5.74-3.66-.51-7.32-1.02-10.98-1.53Z"/>
      <polygon class="cls-1" points="554.3 0 488.04 98.76 403.03 98.76 133.53 496.21 0 496.21 335.47 0 554.3 0"/>
      <path class="cls-1" d="m311.42.49l-67.16,99.5c-9.16-.09-18.32-.18-27.48-.27-3.32-.06-8.18-.11-14.08-.05-8.02.09-10.35.29-11.54.41-5.52.55-9.69.96-14.76,3.08-5.35,2.24-8.98,5.24-10.74,6.86-1.69,1.55-4.36,4.02-6.51,8.02-1.95,3.59-2.65,6.85-3.13,9.83-1.74,10.68-1.41,22.22-1.15,27.54.15,1.57.46,3.89,1.15,6.64.92,3.68,2.44,9.48,7.05,15.06.85,1.03,3.25,3.8,7.18,6.38,5.49,3.62,10.8,4.8,13.85,5.24-22.75,33.73-45.51,67.47-68.26,101.21-12.44-2.3-42.06-9.69-62.46-35.37-14.59-18.36-19.16-39.39-22.47-54.64-3.15-14.52-3.93-27.02-4.01-36,0-6.17.08-14.91.39-25.41.34-11.17.51-16.76.98-22.17.81-9.16,2.16-23.35,7.92-40.25,1.89-5.54,3.79-10.03,5.19-13.11,3.47-7.52,9.71-18.73,20.6-29.44,19.75-19.44,42.65-25.25,57.21-28.75,12.46-3,24.97-3.47,49.48-4.31,27.51-.93,46.05-.32,67.09.03,18.16.31,44.02.51,75.66-.03Z"/>
    </g>
  </g>
</svg>