<?xml version="1.0" encoding="UTF-8"?>
<svg id="Capa_2" data-name="Capa 2" xmlns="http://www.w3.org/2000/svg" xmlns:xlink="http://www.w3.org/1999/xlink" viewBox="0 0 783.55 1011.11">
  <defs>
    <style>
      .cls-1 {
        fill: url(#Degradado_sin_nombre_2);
        stroke-width: 0px;
      }
    </style>
    <linearGradient id="Degradado_sin_nombre_2" data-name="Degradado sin nombre 2" x1=".64" y1="489.89" x2="725.7" y2="519.42" gradientUnits="userSpaceOnUse">
      <stop offset="0" stop-color="#cce0f4"/>
      <stop offset=".12" stop-color="#9dcdec"/>
      <stop offset=".36" stop-color="#42aadd"/>
      <stop offset=".47" stop-color="#1e9cd7"/>
      <stop offset=".77" stop-color="#0075be"/>
      <stop offset=".99" stop-color="#005b97"/>
    </linearGradient>
  </defs>
  <g id="Capa_1-2" data-name="Capa 1">
    <path class="cls-1" d="m783.22,690.68c-.52,21.42-1.42,49.39-9.69,80.78-.2.67-.4,1.33-.61,1.99-12.33,39.45-32.43,74.37-58.17,103.71-6.69,7.48-14.22,15.13-22.53,22.52-19.17,17.04-45,34.67-76.05,50.74-96.35,49.87-242.96,84.73-396.95,40.26-93.89-27.12-165.31-76.44-215.63-122.19-4.2-3.81-4.79-10.2-1.35-14.71l152.01-199.57c2.94-3.87,8.08-5.32,12.62-3.58,5.56,2.14,11.16,4.28,16.79,6.41,25.52,9.67,51.71,19.23,78.56,28.64,33.69,11.81,66.71,22.79,99,33l21.66,7.22c6.09,2.03,9.13,8.85,6.56,14.74l-1.49,3.41-12.2,27.95c-2.82,6.47,1.14,13.88,8.09,15.12.65.12,1.3.17,1.94.17,3.09,0,6.08-1.31,8.17-3.68l32.39-36.59c2.7-3.04,6.86-4.34,10.81-3.36l100.99,25.04c7.62,1.88,10.82,10.94,6.09,17.19l-71.01,93.92c-5.2,6.87-.76,16.78,7.83,17.48l12.6,1.02c2.92.24,5.82-.71,8.04-2.64l120.97-104.9c2.27-1.97,5.26-2.92,8.25-2.61l73.59,7.45c.44.04.87.11,1.3.21,3.46.78,17.83,3.33,28.42-6.14,1.95-1.74,6.77-6.06,7-11,.49-10.73-20.79-22.59-52-30l-48.32-11.85c-2.98-.73-5.52-2.68-6.99-5.37l-3.52-6.44-55.64-101.78-18.36-33.59c-1.39-2.54-3.73-4.43-6.51-5.25l-10.47-3.08c-8.3-2.44-16,5.26-13.58,13.55l13.26,45.32,19.71,67.38c2.14,7.32-3.68,14.52-11.28,13.97l-75.38-5.47-25.95-1.88c-4.25-.31-7.93-3.06-9.43-7.05l-15.9-42.15-2.42-6.42c-1.37-3.65-4.59-6.28-8.43-6.92l-3.32-.56c-7.21-1.2-13.55,4.89-12.63,12.15l.23,1.84,4.22,33.49c.8,6.3-3.91,11.94-10.25,12.29-6.28.34-13.78.17-22.04-1.18-1.51-.25-2.98-.52-4.42-.82-.01,0-.02,0-.03-.01-.42-.13-.84-.26-1.26-.39-6.81-2.13-13.55-4.36-20.2-6.71-57.12-20.05-108.33-47.69-151.66-80.32-96.83-72.9-154.29-170.76-150.24-264.85.28-6.85.9-13.68,1.87-20.48-.28-13.61.3-27.35,1.71-41.08.01-.02.01-.04.01-.06,6.43-62.51,30.14-124.84,70.22-174.28C196.21,17.06,323.04,5.85,370.22,1.68c192.53-17.02,334.96,99.98,378.43,139.94,4.68,4.3,4.72,11.67.08,16.02l-64.19,60.14-18.04,16.89-91.56,85.78c-4.23,3.96-10.81,3.94-15-.06-19.09-18.26-48.61-39.91-88.72-48.71-42.72-9.38-109.32-6.79-121,23-4.02,10.27-.26,20.54,1,24,7.9,21.61,32.11,33.51,127,57,58.41,14.46,59.92,12.47,90,22,38.5,12.19,66.08,20.93,97,41,15.22,9.89,28.11,20.47,38.68,30.42,20.18,18.98,31.91,35.63,35.32,40.58,32.55,47.31,41.58,96.88,43.73,136.29.12,2.09.21,4.15.29,6.17.56,14.67.24,27.75-.02,38.54Z"/>
  </g>
</svg>