<?xml version="1.0" encoding="UTF-8"?>
<svg id="Capa_2" data-name="Capa 2" xmlns="http://www.w3.org/2000/svg" xmlns:xlink="http://www.w3.org/1999/xlink" viewBox="0 0 363.55 363.55">
  <defs>
    <style>
      .cls-1 {
        fill: url(#Degradado_sin_nombre_55);
      }

      .cls-1, .cls-2, .cls-3, .cls-4 {
        stroke-width: 0px;
      }

      .cls-2 {
        fill: url(#Degradado_sin_nombre_112);
      }

      .cls-3 {
        fill: url(#Degradado_sin_nombre_112-2);
      }

      .cls-4 {
        fill: url(#Degradado_sin_nombre_128);
      }
    </style>
    <linearGradient id="Degradado_sin_nombre_55" data-name="Degradado sin nombre 55" x1="0" y1="185.44" x2="285.15" y2="185.44" gradientUnits="userSpaceOnUse">
      <stop offset=".26" stop-color="#03045e"/>
      <stop offset=".37" stop-color="#141e6f"/>
      <stop offset=".61" stop-color="#40639c"/>
      <stop offset=".95" stop-color="#85cfe4"/>
      <stop offset="1" stop-color="#90e0ef"/>
    </linearGradient>
    <linearGradient id="Degradado_sin_nombre_112" data-name="Degradado sin nombre 112" x1="89.61" y1="222.16" x2="353.09" y2="108.74" gradientUnits="userSpaceOnUse">
      <stop offset="0" stop-color="#90baef"/>
      <stop offset=".13" stop-color="#89b9ed"/>
      <stop offset=".32" stop-color="#76b8ea"/>
      <stop offset=".53" stop-color="#58b7e6"/>
      <stop offset=".77" stop-color="#2eb5df"/>
      <stop offset="1" stop-color="#00b4d8"/>
    </linearGradient>
    <linearGradient id="Degradado_sin_nombre_128" data-name="Degradado sin nombre 128" x1="100.95" y1="154.18" x2="212.09" y2="193.55" gradientUnits="userSpaceOnUse">
      <stop offset=".35" stop-color="#03045e"/>
      <stop offset="1" stop-color="#4b57a3"/>
      <stop offset="1" stop-color="#5469ad"/>
      <stop offset="1" stop-color="#6489be"/>
      <stop offset="1" stop-color="#72a4ce"/>
      <stop offset="1" stop-color="#7dbada"/>
      <stop offset="1" stop-color="#85cbe3"/>
      <stop offset="1" stop-color="#8bd7ea"/>
      <stop offset="1" stop-color="#8fdeed"/>
      <stop offset="1" stop-color="#90e0ef"/>
    </linearGradient>
    <linearGradient id="Degradado_sin_nombre_112-2" data-name="Degradado sin nombre 112" x1="195.27" y1="178.11" x2="270.41" y2="178.11" xlink:href="#Degradado_sin_nombre_112"/>
  </defs>
  <g id="Capa_4" data-name="Capa 4">
    <g>
      <g>
        <path class="cls-1" d="m78.37,162.47c-1.1,6.26-1.68,12.71-1.68,19.3,0,.81.01,1.62.03,2.42-.02,1.03-.03,2.06-.03,3.1,0,73.02,43.06,135.99,105.17,164.89,8.17,3.81,16.68,7.02,25.47,9.59-8.35,1.17-16.89,1.78-25.56,1.78s-17.09-.6-25.38-1.75C68.01,349.45,0,273.56,0,181.78,0,99.2,55.05,29.49,130.46,7.34c18.06,2.53,35.27,7.71,51.23,15.13,54.88,25.54,94.88,77.67,103.46,139.83-8.94-50.23-51.82-88.3-103.38-88.3s-94.53,38.16-103.4,88.47Z"/>
        <path class="cls-2" d="m363.55,181.78c0,91.71-67.93,167.56-156.22,179.99-8.79-2.57-17.3-5.78-25.47-9.59-62.11-28.9-105.17-91.87-105.17-164.89,0-1.04.01-2.07.03-3.1,1.25,58.41,47.81,105.36,105.05,105.36s103.79-46.92,105.06-105.32c.02-.82.03-1.64.03-2.46,0-6.65-.59-13.15-1.71-19.47-8.58-62.16-48.58-114.29-103.46-139.83-15.96-7.42-33.17-12.6-51.23-15.13,16.27-4.78,33.49-7.34,51.31-7.34s34.91,2.54,51.13,7.29c75.5,22.09,130.65,91.85,130.65,174.49Z"/>
      </g>
      <g>
        <path class="cls-4" d="m209.32,188.74l-2.97,8.18-6.51,18-.32.87c-1.67,4.05-3.18,6.59-6.27,9.71-3.82,3.79-10.01,3.79-13.8,0l-12.7-12.74-7.95-7.93-7.72,7.74-12.68,12.65c-3.79,3.79-9.96,3.79-13.78,0-2.76-3.03-4.56-5.87-6.27-9.54l-25.27-69.72c-2.01-5.6.89-11.74,6.47-13.78l9.73-3.52c5.57-2.03,11.74.87,13.76,6.44l18.87,52.15,4.45-4.45c1.65-2.01,3.46-3.92,5.21-5.87,3.79-3.79,9.96-3.79,13.78,0l10.56,10.53,18.93-52.31c2.03-5.62,8.22-8.5,13.82-6.47l1.7.61c-8.03,6.04-13.57,15.26-14.75,25.82-.11.78-.17,1.57-.21,2.4v3.86c.32,6.15,2.08,11.87,4.96,16.87,2.33,4.03,5.36,7.61,8.97,10.49Z"/>
        <path class="cls-3" d="m270.38,196.06c1.18,30.32-39.68,51.98-64.1,27.7-1.73-1.71-3.3-3.64-4.23-5.89-2.8-6.8.91-14.38,4.53-20.78,9.74-.1,19.47-.2,29.21-.29-19.17,1.57-38.13-14.02-40.3-33.13-2.17-19.11,12.82-38.55,31.85-41.32,19.03-2.77,38.94,11.6,42.3,30.54.25,1.39.4,2.91-.3,4.14-1.21,2.13-4.15,2.29-6.6,2.18-9.13-.39-18.25-.77-27.38-1.16,13.49,3.01,25.97,11.83,31.7,24.41,2.11,4.64,3.16,9.21,3.33,13.6Z"/>
      </g>
    </g>
  </g>
</svg>